<svg xmlns="http://www.w3.org/2000/svg" xmlns:xlink="http://www.w3.org/1999/xlink" height="800" width="1200" version="1.0" viewBox="-18.57978 -23.438175 161.02476 140.62905"><defs><linearGradient id="b"><stop offset="0" stop-color="#fff"/><stop offset="1" stop-color="#fff" stop-opacity=".3333"/></linearGradient><linearGradient id="a"><stop offset="0" stop-color="#f2f2f0" stop-opacity=".1354"/><stop offset="1" stop-color="#eeeeec" stop-opacity=".3958"/></linearGradient><linearGradient spreadMethod="reflect" gradientTransform="matrix(1 0 0 .99176 -.678 .5012)" gradientUnits="userSpaceOnUse" xlink:href="#a" id="c" y2="47.0307" x2="44.4959" y1="33.5625" x1="27.2479"/><linearGradient gradientTransform="matrix(.99719 0 0 .98872 -.4974 .6867)" gradientUnits="userSpaceOnUse" xlink:href="#b" id="d" y2="90.7186" x2="104.0245" y1="30.9936" x1="24.4822"/><linearGradient spreadMethod="reflect" gradientTransform="matrix(1 0 0 -.99176 -.678 121.0142)" gradientUnits="userSpaceOnUse" xlink:href="#a" id="e" y2="47.0307" x2="44.4959" y1="33.5625" x1="27.2479"/></defs><g transform="translate(-33.347 -44.392) scale(1.47509)"><rect y="33.484" x="25.9963" ry="8.5425" rx="7.6942" height="60.1676" width="80.5816" fill="#2e3436" fill-opacity=".2745"/><rect y="30.7723" x="23.2846" ry="8.5425" rx="7.6942" height="60.1676" width="80.5816" fill="#a40000"/><rect y="33.7873" x="26.5699" ry="5.6201" rx="5.2214" height="54.1375" width="74.011" fill="url(#c)"/><path style="line-height:125%;text-align:start" d="M32.3333 39.188c-.8104.1002-1.4455.7471-1.4482 1.53l.0511 39.9766c-.0033.057-.0032.117.0003.174a1.3002 1.3002 0 00.0003.2708v.0387c.0087.0383.0298.0783.0416.116a.667.667 0 000 .0193c.0088.0384.0092.0784.021.116a1.6642 1.6642 0 000 .0387c.0187.0388.0402.0787.0623.116v.0193c.0287.0393.0713.0792.1037.1159v.0193a1.579 1.579 0 00.0624.116v.0386c.0394.0303.0822.0505.1244.0772v.0387c.0294.0296.0512.0499.083.0772.0101.0096.0312.0293.0415.0387.0294.0296.0512.0499.083.0772h.0207c.0757.0638.1618.1239.2488.1737h.0415a1.823 1.823 0 00.1243.0578h.0207c.04.0204.0828.0404.1244.0578.0605.0126.1249.0128.1865.019.1007.0182.2082.0378.3108.0383l.1657-.0003 15.3099-.061c4.3762-.0078 7.3074-.0827 9.053-.3034h.0414c1.6705-.232 3.44-.6596 5.364-1.2844 3.3448-1.0457 6.3108-2.5909 8.861-4.6546 2.497-1.9993 4.4319-4.3663 5.7918-7.029 1.3599-2.6627 2.0454-5.478 2.0403-8.3968-.0072-4.0626-1.2362-7.8669-3.7021-11.2893-2.4662-3.4227-5.8323-6.0438-9.9749-7.7796-4.2114-1.7855-9.7025-2.599-16.5148-2.5868l-16.5322.0241c-.071.0004-.1385-.0082-.2072.0003zm8.8982 8.226l7.1266-.0104c3.3307-.0059 5.7001.0952 7.0442.2798 1.3625.1872 2.8547.5822 4.435 1.1926 1.5662.5968 2.9316 1.3277 4.1048 2.2375v.0387c3.2277 2.4708 4.7493 5.4408 4.7563 9.3731.007 4.0265-1.4633 7.1627-4.6074 9.793-.9672.7983-2.0427 1.4752-3.2293 2.0355-1.1215.5223-2.5844.9724-4.4317 1.3603-1.7422.3485-4.3871.5468-7.8303.553l-7.3339.0107-.0343-26.8638z" font-weight="400" font-size="64" font-family="Gill Sans MT" fill="#eeeeec"/><path d="M91.3517 53.1706a11.6395 10.6696 0 11-23.279 0 11.6395 10.6696 0 1123.279 0z" fill="#eeeeec"/><rect y="31.9813" x="24.5723" ry="7.3061" rx="6.5702" height="57.7497" width="78.0062" fill="none" stroke="url(#d)" stroke-width="1.3463" stroke-linecap="round" stroke-linejoin="round"/><rect y="30.7723" x="23.2846" ry="8.5425" rx="7.6942" height="60.1676" width="80.5816" fill="none" stroke="#323232" stroke-width="1.3558" stroke-linecap="round" stroke-linejoin="round"/><path d="M31.7913 87.7281h63.5682c2.8927 0 5.2214-2.5065 5.2214-5.62v-9.0012C77.8757 64.3733 45.004 59.6946 26.57 59.5484v22.5597c0 3.1135 2.3288 5.62 5.2214 5.62z" fill="url(#e)"/><path d="M96.7154 41.4457a3.74 3.4283 0 11-7.4798 0 3.74 3.4283 0 117.4798 0z" fill="#eeeeec"/></g></svg>